HIERARCHY
ROOT Hips
{
	OFFSET -0.179506 -22.333345 2.821913
	CHANNELS 6 Xposition Yposition Zposition Zrotation Yrotation Xrotation 
	JOINT LeftUpLeg
	{
		OFFSET 6.951974 -9.140623 -0.681533
		CHANNELS 3 Zrotation Yrotation Xrotation
		JOINT LeftLeg
		{
			OFFSET 3.427654 -37.519855 -0.449580
			CHANNELS 3 Zrotation Yrotation Xrotation
			JOINT LeftFoot
			{
				OFFSET -1.359570 -39.796059 -4.369333
				CHANNELS 3 Zrotation Yrotation Xrotation
				JOINT LeftToe
				{
					OFFSET 2.635814 -5.579078 11.928840
					CHANNELS 3 Zrotation Yrotation Xrotation
					End Site
					{
						OFFSET 0.000000 0.000000 0.000000
					}
				}
			}
		}
	}
	JOINT RightUpLeg
	{
		OFFSET -6.767048 -9.052170 -0.431982
		CHANNELS 3 Zrotation Yrotation Xrotation
		JOINT RightLeg
		{
			OFFSET -3.829005 -38.256897 -0.885003
			CHANNELS 3 Zrotation Yrotation Xrotation
			JOINT RightFoot
			{
				OFFSET 1.577377 -39.841461 -4.231180
				CHANNELS 3 Zrotation Yrotation Xrotation
				JOINT RightToe
				{
					OFFSET -2.537174 -4.814398 12.334795
					CHANNELS 3 Zrotation Yrotation Xrotation
					End Site
					{
						OFFSET 0.000000 0.000000 0.000000
					}
				}
			}
		}
	}
	JOINT Spine
	{
		OFFSET -0.253288 10.896323 -2.669631
		CHANNELS 3 Zrotation Yrotation Xrotation
		JOINT Spine1
		{
			OFFSET 0.548704 13.518043 0.109247
			CHANNELS 3 Zrotation Yrotation Xrotation
			JOINT Spine2
			{
				OFFSET 0.145701 5.292222 2.542457
				CHANNELS 3 Zrotation Yrotation Xrotation
				JOINT Neck
				{
					OFFSET -0.277840 21.387037 -4.285703
					CHANNELS 3 Zrotation Yrotation Xrotation
					JOINT Head
					{
						OFFSET 0.515184 6.496960 5.134897
						CHANNELS 3 Zrotation Yrotation Xrotation
						End Site
						{
							OFFSET 0.000000 0.000000 0.000000
						}
					}
				}
				JOINT LeftShoulder
				{
					OFFSET 7.884473 12.174932 -3.408961
					CHANNELS 3 Zrotation Yrotation Xrotation
					JOINT LeftArm
					{
						OFFSET 9.097692 3.046888 -0.886815
						CHANNELS 3 Zrotation Yrotation Xrotation
						JOINT LeftForeArm
						{
							OFFSET 25.961220 -1.277207 -2.745643
							CHANNELS 3 Zrotation Yrotation Xrotation
							JOINT LeftHand
							{
								OFFSET 24.923361 0.898606 -0.117091
								CHANNELS 3 Zrotation Yrotation Xrotation
								End Site
								{
									OFFSET 0.000000 0.000000 0.000000
								}
							}
						}
					}
				}
				JOINT RightShoulder
				{
					OFFSET -8.175920 11.883285 -3.861528
					CHANNELS 3 Zrotation Yrotation Xrotation
					JOINT RightArm
					{
						OFFSET -9.601238 3.255117 -0.914307
						CHANNELS 3 Zrotation Yrotation Xrotation
						JOINT RightForeArm
						{
							OFFSET -25.374195 -1.332924 -2.140099
							CHANNELS 3 Zrotation Yrotation Xrotation
							JOINT RightHand
							{
								OFFSET -25.529810 0.777228 -0.555919
								CHANNELS 3 Zrotation Yrotation Xrotation
								End Site
								{
									OFFSET 0.000000 0.000000 0.000000
								}
							}
						}
					}
				}
			}
		}
	}
}
MOTION
Frames: 12
Frame Time: 0.033333
-13.846931 26.612669 93.116081 -173.867428 -3.612052 85.114586 -10.559260 -0.944908 15.880764 6.803739 -19.514184 -16.533386 2.956112 5.972666 0.708175 nan nan nan -8.389006 -0.902956 -3.469738 -0.506570 -4.036518 24.148029 10.165936 -4.756424 -14.030650 nan nan nan 1.101036 -0.475879 -0.077715 -2.124396 -1.804489 4.841497 -2.732534 -0.950401 -0.411193 -0.145295 -3.270042 1.506464 7.135011 -5.527348 -14.232482 -21.831268 -2.850371 4.659945 -56.190371 -8.320102 15.228755 1.508296 -18.603980 1.929274 -1.063721 -13.859280 -33.001119 20.227477 2.968565 0.281713 61.634025 5.300889 18.864248 -3.353014 24.927567 14.380814 13.196199 3.006855 -2.883561 
-13.839685 26.592785 93.093079 -173.809804 -3.648212 85.131164 -10.550588 -0.912140 15.821692 6.745112 -19.557147 -16.522324 2.966834 5.901550 0.715052 nan nan nan -8.429954 -0.876937 -3.510091 -0.497663 -4.068683 24.163641 10.342535 -4.676306 -14.045514 nan nan nan 1.117644 -0.515474 -0.078443 -2.210748 -1.780459 4.860519 -2.803511 -0.877879 -0.469853 -0.271330 -3.196969 1.572922 7.093659 -5.449201 -14.298914 -21.922490 -2.855369 4.643238 -56.015038 -8.310979 15.106288 1.574072 -18.533882 1.857052 -1.299228 -13.970852 -32.770641 20.297502 3.041258 0.380597 61.679295 5.273848 18.830144 -3.505470 24.854278 14.327354 13.357694 3.034499 -2.736394 
-13.833722 26.572870 93.071289 -173.742230 -3.646695 85.144359 -10.485145 -0.899033 15.775077 6.684742 -19.628343 -16.535402 2.966302 5.810552 0.744656 nan nan nan -8.447149 -0.888998 -3.560922 -0.469839 -4.110139 24.219636 10.460230 -4.616257 -14.042003 nan nan nan 1.136070 -0.523955 -0.108075 -2.263803 -1.770995 4.909314 -2.845556 -0.819301 -0.517181 -0.412352 -3.190677 1.676414 7.061358 -5.414877 -14.334411 -21.986869 -2.901439 4.647057 -55.794605 -8.315267 14.973210 1.465570 -18.484212 1.657001 -1.567493 -14.079733 -32.639647 20.328056 3.113542 0.455014 61.735545 5.209357 18.767873 -3.634598 24.815165 14.264504 13.607649 3.037026 -2.449247 
-13.852748 26.541410 93.042213 -173.693723 -3.655134 85.167298 -10.496422 -0.941904 15.733929 6.670558 -19.646164 -16.564105 3.004103 5.752356 0.767919 nan nan nan -8.495037 -0.952795 -3.667637 -0.458329 -4.128415 24.336047 10.419737 -4.585749 -14.010827 nan nan nan 1.221255 -0.498574 -0.127190 -2.350064 -1.758102 4.924045 -2.923356 -0.783782 -0.523488 -0.545093 -3.221276 1.764822 7.034471 -5.357980 -14.399953 -22.014714 -2.949576 4.672090 -55.691893 -8.325184 14.884849 1.514590 -18.491915 1.445605 -1.706725 -14.040959 -32.677159 20.296913 3.182533 0.520029 61.815715 5.225103 18.712896 -3.666835 24.674210 14.316719 13.818478 2.915723 -2.264274 
-13.880630 26.510317 93.012711 -173.642350 -3.697641 85.171415 -10.573972 -0.970034 15.714377 6.698471 -19.663778 -16.570614 2.992711 5.722439 0.740519 nan nan nan -8.577352 -0.999234 -3.731935 -0.456739 -4.146108 24.428511 10.371726 -4.516035 -13.981102 nan nan nan 1.311212 -0.504179 -0.140508 -2.466999 -1.746614 4.919984 -3.037664 -0.724591 -0.496340 -0.634704 -3.186774 1.835822 7.001526 -5.301825 -14.478694 -22.064452 -2.938229 4.681033 -55.676087 -8.309157 14.842734 1.850626 -18.557573 1.187435 -2.015061 -14.025146 -32.797719 20.306007 3.218608 0.579085 61.866505 5.295977 18.688127 -3.665031 24.538575 14.400144 14.134677 2.708229 -2.340672 
-13.903307 26.483484 92.987968 -173.606341 -3.749811 85.116334 -10.657684 -0.955363 15.770566 6.762899 -19.723688 -16.612363 3.005314 5.760057 0.743346 nan nan nan -8.679977 -1.031513 -3.720439 -0.446068 -4.181535 24.502885 10.429432 -4.400979 -13.989491 nan nan nan 1.349550 -0.520462 -0.070712 -2.573346 -1.701800 4.888961 -3.111656 -0.689783 -0.465973 -0.697206 -3.119678 1.895113 6.918495 -5.238958 -14.477426 -22.147149 -2.877493 4.616166 -55.621206 -8.277660 14.806406 2.101146 -18.568855 0.933430 -2.273879 -14.135606 -32.784567 20.312709 3.244749 0.617148 61.876151 5.316489 18.745206 -3.620962 24.521408 14.477724 14.246501 2.622305 -2.396969 
-13.921918 26.455585 92.970444 -173.610523 -3.805920 85.079020 -10.717297 -0.892959 15.831345 6.812951 -19.793089 -16.719454 3.082578 5.777956 0.824283 nan nan nan -8.773498 -1.064688 -3.759456 -0.448171 -4.187234 24.608728 10.449553 -4.363824 -14.020894 nan nan nan 1.367873 -0.522935 -0.005724 -2.677669 -1.602803 4.875396 -3.163506 -0.703379 -0.475919 -0.752930 -3.096677 1.986469 6.827016 -5.114608 -14.448852 -22.181379 -2.818685 4.572175 -55.569485 -8.263804 14.739035 2.252228 -18.541750 0.807708 -2.300966 -14.100626 -32.590287 20.277725 3.289273 0.665167 61.886574 5.301262 18.821931 -3.525264 24.568756 14.528719 14.081777 2.684026 -2.360259 
-13.931080 26.428947 92.962929 -173.574007 -3.850972 85.087202 -10.717893 -0.804165 15.795994 6.752568 -19.836038 -16.735777 3.136750 5.718454 0.905939 nan nan nan -8.848204 -1.133913 -3.850055 -0.438391 -4.187476 24.729407 10.345789 -4.397415 -14.040115 nan nan nan 1.388911 -0.533830 -0.025406 -2.759351 -1.552403 4.936884 -3.221820 -0.718102 -0.538135 -0.818377 -3.100774 2.106118 6.781571 -4.999598 -14.472379 -22.220987 -2.822675 4.603440 -55.490541 -8.249214 14.667143 2.375309 -18.525204 0.739499 -2.295670 -13.950083 -32.524370 20.232555 3.351872 0.744093 61.926571 5.278566 18.851527 -3.541871 24.584724 14.565367 14.054098 2.705893 -2.262811 
-13.943332 26.410852 92.963753 -173.520717 -3.897035 85.058760 -10.708412 -0.711874 15.792228 6.657441 -19.886435 -16.717033 3.144578 5.642894 0.968999 nan nan nan -8.954255 -1.250993 -3.862687 -0.415353 -4.207139 24.812584 10.196786 -4.405943 -14.072237 nan nan nan 1.417594 -0.525157 -0.000231 -2.842835 -1.528135 5.020680 -3.286456 -0.706596 -0.625451 -0.914137 -3.140383 2.142206 6.749472 -4.963501 -14.542689 -22.271809 -2.828855 4.587474 -55.370034 -8.267113 14.591275 2.374922 -18.401942 0.653226 -2.503053 -13.903147 -32.769358 20.175511 3.352247 0.734893 62.009832 5.202668 18.867936 -3.580395 24.564723 14.631620 14.244503 2.686281 -2.147188 
-13.962464 26.404198 92.961800 -173.493340 -3.965833 85.012196 -10.743556 -0.654187 15.851744 6.579539 -19.928292 -16.758044 3.101960 5.608033 0.984532 nan nan nan -9.080204 -1.356294 -3.841812 -0.407428 -4.194926 24.880654 10.072820 -4.407158 -14.131704 nan nan nan 1.436898 -0.500777 0.044110 -2.935345 -1.492990 5.113164 -3.350249 -0.663000 -0.712900 -1.037183 -3.125823 2.131276 6.692127 -4.931443 -14.590270 -22.381357 -2.804308 4.554340 -55.162127 -8.276573 14.486072 2.288468 -18.332865 0.515314 -2.973427 -14.024579 -33.153434 20.219714 3.304230 0.676434 61.952932 5.121893 18.864140 -3.544620 24.631561 14.765324 14.636274 2.699222 -1.985960 
-13.969213 26.401213 92.952736 -173.473637 -4.005388 84.968332 -10.742045 -0.608820 15.940763 6.527900 -19.960857 -16.846500 3.062862 5.561000 0.952815 nan nan nan -9.133032 -1.384138 -3.808248 -0.419072 -4.166707 24.908456 9.980775 -4.374533 -14.170802 nan nan nan 1.440814 -0.495799 0.073548 -3.004390 -1.464892 5.164763 -3.387429 -0.611483 -0.772400 -1.165517 -3.060081 2.175601 6.642603 -4.903056 -14.523765 -22.458698 -2.793310 4.544682 -55.015287 -8.251691 14.327054 2.328924 -18.281945 0.386634 -3.708395 -14.233494 -33.174449 20.294438 3.265207 0.641455 61.828936 5.053291 18.798429 -3.527219 24.777906 15.140871 15.480113 2.680576 -1.617434 
-13.973221 26.392357 92.942039 -173.443295 -3.995914 84.920793 -10.692927 -0.561899 16.030399 6.499819 -19.960578 -16.931859 3.089499 5.471269 0.885015 nan nan nan -9.142294 -1.352155 -3.758592 -0.407671 -4.239397 24.915242 10.053829 -4.259942 -14.136676 nan nan nan 1.486874 -0.514795 0.127531 -3.063175 -1.457003 5.154013 -3.428800 -0.554454 -0.795572 -1.310375 -3.027274 2.150967 6.597301 -4.924370 -14.352768 -22.428744 -2.817994 4.530387 -54.985036 -8.196543 14.147336 2.427161 -18.208693 0.316238 -4.414854 -14.512647 -32.645176 20.244809 3.236042 0.604410 61.884935 4.930855 18.706581 -3.580865 24.993691 15.663544 16.719692 2.664265 -0.899452 
